<?xml version="1.0" encoding="UTF-8"?>
<svg version="1.1" xmlns="http://www.w3.org/2000/svg" width="1254" height="1254">
<path d="M0 0 C291.83078185 0 291.83078185 0 384 91 C387.10387623 94.25083163 390.05750383 97.60393987 393 101 C394.62325545 102.75161832 396.24834602 104.5015373 397.875 106.25 C402.56916802 111.40778956 406.86979996 116.80042329 411.1328125 122.3125 C413.61082938 125.51591559 416.14338024 128.67175064 418.69116211 131.81982422 C422.6323535 136.6998648 426.56065955 141.59768298 430.3125 146.625 C430.86550781 147.35976563 431.41851563 148.09453125 431.98828125 148.8515625 C433 151 433 151 432.96484375 153.35546875 C431.65981585 156.93240758 429.55212104 159.70369644 427.25 162.6875 C426.2426668 164.02672526 425.23619244 165.36659686 424.23046875 166.70703125 C423.70114746 167.40779785 423.17182617 168.10856445 422.62646484 168.83056641 C419.89174383 172.47822941 417.22762015 176.17633521 414.5625 179.875 C414.01835449 180.62845703 413.47420898 181.38191406 412.91357422 182.15820312 C409.19890943 187.31020052 405.52845841 192.49198586 401.875 197.6875 C397.89841575 203.32928302 393.91369205 208.96495581 389.875 214.5625 C389.41335449 215.2124292 388.95170898 215.8623584 388.47607422 216.53198242 C387.36697558 218.05861179 386.18967544 219.53529206 385 221 C384.34 221 383.68 221 383 221 C381.765625 219.26171875 381.765625 219.26171875 380.25 216.6875 C375.19864598 208.50811085 369.38884418 200.89096134 363.63916016 193.19433594 C362.24880799 191.33307808 360.86321535 189.46847048 359.48046875 187.6015625 C351.71069372 177.15786489 343.85998816 166.80723096 335.0390625 157.22265625 C333.18749705 155.20437897 331.40167 153.14650865 329.625 151.0625 C322.70289966 143.12858453 315.09616688 135.72625709 307 129 C306.5167627 128.5870166 306.03352539 128.1740332 305.53564453 127.74853516 C287.32603992 112.23016679 266.18988963 99.48960677 243.44921875 91.828125 C241.76875163 91.25992878 240.10442985 90.64232221 238.45703125 89.984375 C231.71350111 87.31485347 224.92586304 85.88230918 217.80859375 84.65625 C213.98684269 83.99773289 210.19879004 83.23630982 206.40625 82.4296875 C165.57548414 75.13847931 123.47506233 80.36381634 82 80 C82 187.91 82 295.82 82 407 C151.89108198 409.84199218 151.89108198 409.84199218 225.75 401.375 C226.76803711 401.11485107 227.78607422 400.85470215 228.83496094 400.58666992 C252.97847185 394.17084601 274.63387622 382.69702844 294 367 C294.57298828 366.54125488 295.14597656 366.08250977 295.73632812 365.60986328 C307.16976091 356.41211043 317.73020403 346.28482118 326.8046875 334.73046875 C328.59058279 332.50922177 330.42229509 330.38482566 332.31640625 328.2578125 C336.14309829 323.90841799 339.61548155 319.34039848 343.0625 314.6875 C343.70662842 313.82302246 344.35075684 312.95854492 345.0144043 312.06787109 C347.0136507 309.38155904 349.00746801 306.69129506 351 304 C351.62455078 303.15808105 352.24910156 302.31616211 352.89257812 301.44873047 C359.96240428 291.91421148 366.9598697 282.33292464 373.82763672 272.65185547 C375.81775521 269.84778597 377.81484761 267.04870502 379.8125 264.25 C380.21976318 263.67878418 380.62702637 263.10756836 381.04663086 262.51904297 C383.37084753 259.26379485 385.70921245 256.01945949 388.0625 252.78515625 C393.69727077 245.034674 399.2427623 237.24097478 404.625 229.3125 C408.9338636 222.9654694 413.34370569 216.71839117 417.91113281 210.55517578 C421.29890503 205.97813139 424.60200299 201.34721556 427.875 196.6875 C438.6959549 181.29754181 449.79923918 166.11517675 461 151 C461.43296387 150.41492676 461.86592773 149.82985352 462.31201172 149.22705078 C470.53138634 138.13343712 479.05156389 127.27713952 487.83984375 116.62890625 C489.26228668 114.89779578 490.67157117 113.15577537 492.06640625 111.40234375 C497.10112098 105.10663233 502.45715487 99.19505529 507.98925781 93.33911133 C510.89111648 90.26717892 513.73659562 87.18975179 516.4375 83.9375 C544.3704569 51.67493478 585.65808461 26.09617578 626 13 C627.12994385 12.63165039 627.12994385 12.63165039 628.28271484 12.25585938 C712.60310772 -14.663967 817.08639025 0 896 0 C896 161.04 896 322.08 896 488 C636.31780497 488 636.31780497 488 566 439 C565.42330566 438.60345215 564.84661133 438.2069043 564.25244141 437.79833984 C540.28048255 421.29693227 517.73441994 401.30875007 499 379 C498.2059375 378.08347656 497.411875 377.16695312 496.59375 376.22265625 C489.64770795 368.17691978 483.14225967 359.83466751 476.76611328 351.33251953 C474.87659213 348.83701426 472.95338462 346.36974817 471.02734375 343.90234375 C469.72588686 342.20624739 468.42509056 340.50964391 467.125 338.8125 C466.49940186 338.02278809 465.87380371 337.23307617 465.22924805 336.41943359 C461.0216028 330.85896864 461.0216028 330.85896864 460.91796875 326.73828125 C462.05689258 323.85602276 463.27549769 321.81290487 465.1875 319.375 C465.909375 318.42496094 466.63125 317.47492188 467.375 316.49609375 C467.7875 315.9532373 468.2 315.41038086 468.625 314.85107422 C471.40297171 311.11126926 474.03026791 307.26349132 476.6875 303.4375 C481.79476049 296.11255016 486.96701019 288.83999731 492.22070312 281.61938477 C494.99112874 277.80578997 497.72598698 273.97257603 500.41015625 270.09765625 C500.9604248 269.30576904 501.51069336 268.51388184 502.07763672 267.69799805 C503.13055019 266.17866659 504.17799122 264.65552428 505.21923828 263.12817383 C506.43018284 261.38350431 507.7087478 259.68609792 509 258 C509.66 258 510.32 258 511 258 C512.13818359 259.38256836 512.13818359 259.38256836 513.3984375 261.33984375 C513.87192627 262.06502197 514.34541504 262.7902002 514.83325195 263.53735352 C515.34202881 264.32940186 515.85080566 265.1214502 516.375 265.9375 C517.45774431 267.59238468 518.54243123 269.24599974 519.62890625 270.8984375 C520.18594238 271.74631836 520.74297852 272.59419922 521.31689453 273.46777344 C527.29441723 282.4609364 533.52660267 291.34023605 540.25 299.79296875 C541.98858907 301.98560898 543.6874054 304.20619803 545.38208008 306.43286133 C555.03852731 319.09378948 564.96403544 331.50642071 576 343 C576.84667236 343.88751953 576.84667236 343.88751953 577.71044922 344.79296875 C585.72919348 353.15435756 593.95831248 360.84809029 603.28369141 367.73242188 C604.98567589 368.98942094 606.67044998 370.2672632 608.35546875 371.546875 C620.50658591 380.63300364 633.94922951 388.26178324 648 394 C649.13824219 394.47953125 650.27648437 394.9590625 651.44921875 395.453125 C702.06539733 416.04308901 765.26066967 406.59230057 815 407 C815 298.76 815 190.52 815 79 C727.73252304 75.27323339 727.73252304 75.27323339 642 94 C641.2766748 94.30357422 640.55334961 94.60714844 639.80810547 94.91992188 C621.97080053 102.51156439 605.5184106 113.15206642 591 126 C590.24847656 126.64324219 589.49695313 127.28648437 588.72265625 127.94921875 C576.5115066 138.61619639 564.93199564 150.17869653 555 163 C554.09907154 164.11418193 553.19523563 165.22601691 552.2890625 166.3359375 C546.1297362 173.90085101 540.25515318 181.64064232 534.50219727 189.51831055 C529.99728676 195.67841336 525.39281091 201.75582898 520.75 207.8125 C515.11874769 215.16998541 509.63166424 222.60035872 504.29541016 230.17333984 C501.7228898 233.80085536 499.10776971 237.39778972 496.5 241 C492.24724461 246.88013243 488.01054225 252.77100718 483.80200195 258.68286133 C481.53304915 261.86629701 479.24927379 265.03816521 476.94921875 268.19921875 C470.78737138 276.67362385 464.76378984 285.22047207 458.87792969 293.88891602 C454.62695168 300.13054292 450.24380259 306.26607204 445.80249023 312.37329102 C442.1752741 317.36255491 438.60384198 322.38700332 435.0625 327.4375 C420.06967528 348.76294449 404.71705748 370.36677566 387.13671875 389.6484375 C385.31022283 391.65858475 383.52278521 393.69269371 381.75 395.75 C373.97603782 404.64747186 366.12917172 413.47095985 357 421 C355.64261719 422.18916016 355.64261719 422.18916016 354.2578125 423.40234375 C339.69859193 436.12360831 323.99603421 446.8060326 307 456 C306.32791504 456.36432129 305.65583008 456.72864258 304.96337891 457.10400391 C288.89747675 465.70396309 271.81513343 472.85601009 254.16357422 477.43505859 C252.69320563 477.8189937 251.22610871 478.21563587 249.76220703 478.62353516 C173.27008031 499.91515806 62.57525123 487 0 487 C0 326.29 0 165.58 0 0 Z " fill="#010101" transform="translate(179,383)"/>
<path d="M0 0 C0.66 0.99 1.32 1.98 2 3 C0.0884175 4.79736845 -1.82886184 6.58789474 -3.75 8.375 C-4.55824219 9.13683594 -4.55824219 9.13683594 -5.3828125 9.9140625 C-8.09097827 12.4240698 -10.55080159 14.61027443 -14 16 C-9.40525596 10.60117576 -4.72323727 5.28666913 0 0 Z " fill="#1F1F20" transform="translate(501,723)"/>
<path d="M0 0 C0.33 1.32 0.66 2.64 1 4 C-0.57826815 5.46381359 -2.16282229 6.92085163 -3.75 8.375 C-4.63171875 9.18710937 -5.5134375 9.99921875 -6.421875 10.8359375 C-8.59802521 12.6625848 -10.40820119 13.89787994 -13 15 C-8.70214922 9.96836982 -4.36574458 4.97281557 0 0 Z " fill="#D1D0D1" transform="translate(564,774)"/>
<path d="M0 0 C0.66 0.33 1.32 0.66 2 1 C-1.3 4.63 -4.6 8.26 -8 12 C-8.66 11.34 -9.32 10.68 -10 10 C-6.7 6.7 -3.4 3.4 0 0 Z " fill="#DFDEE0" transform="translate(767,510)"/>
<path d="M0 0 C2.05078125 0.03255208 4.1015625 0.06510417 6.15234375 0.09765625 C6.15234375 0.75765625 6.15234375 1.41765625 6.15234375 2.09765625 C2.77734375 2.72265625 2.77734375 2.72265625 -0.84765625 3.09765625 C-1.50765625 2.43765625 -2.16765625 1.77765625 -2.84765625 1.09765625 C-1.84765625 0.09765625 -1.84765625 0.09765625 0 0 Z " fill="#2C2D2D" transform="translate(870.84765625,382.90234375)"/>
<path d="M0 0 C0.66 0.66 1.32 1.32 2 2 C-1.465 4.97 -1.465 4.97 -5 8 C-5.66 7.67 -6.32 7.34 -7 7 C-4.69 4.69 -2.38 2.38 0 0 Z " fill="#EBEAEB" transform="translate(753,524)"/>
<path d="M0 0 C0.33 0.99 0.66 1.98 1 3 C-0.65 4.32 -2.3 5.64 -4 7 C-2.92598892 4.08482708 -2.22189824 2.22189824 0 0 Z M-5 7 C-5 7.99 -5 8.98 -5 10 C-5.66 9.67 -6.32 9.34 -7 9 C-6.34 8.34 -5.68 7.68 -5 7 Z " fill="#E1E1E2" transform="translate(580,581)"/>
<path d="M0 0 C0.66 0 1.32 0 2 0 C0.87548273 2.9719385 -0.22293791 5.33440687 -2 8 C-2.99 7.67 -3.98 7.34 -5 7 C-4.21654285 5.82780457 -3.42297164 4.66236332 -2.625 3.5 C-2.18414063 2.8503125 -1.74328125 2.200625 -1.2890625 1.53125 C-0.65097656 0.77328125 -0.65097656 0.77328125 0 0 Z " fill="#E1E0E2" transform="translate(586,572)"/>
<path d="M0 0 C0.66 0 1.32 0 2 0 C0.62845496 2.95409701 -0.98863724 5.44008376 -3 8 C-3.66 7.67 -4.32 7.34 -5 7 C-4.21654285 5.82780457 -3.42297164 4.66236332 -2.625 3.5 C-2.18414063 2.8503125 -1.74328125 2.200625 -1.2890625 1.53125 C-0.65097656 0.77328125 -0.65097656 0.77328125 0 0 Z " fill="#2D2D2E" transform="translate(688,641)"/>
<path d="M0 0 C0.66 0 1.32 0 2 0 C0.8141763 3.37503669 -0.27573689 5.64722731 -3 8 C-3.66 7.67 -4.32 7.34 -5 7 C-4.21654285 5.82780457 -3.42297164 4.66236332 -2.625 3.5 C-2.18414063 2.8503125 -1.74328125 2.200625 -1.2890625 1.53125 C-0.65097656 0.77328125 -0.65097656 0.77328125 0 0 Z " fill="#161617" transform="translate(576,623)"/>
</svg>
